<?xml version="1.0" encoding="UTF-8" standalone="no"?>
<!-- Created with Inkscape (http://www.inkscape.org/) -->

<svg
   version="1.1"
   id="svg2"
   width="565.49335"
   height="300.34668"
   viewBox="0 0 565.49335 300.34668"
   sodipodi:docname="lj-bezirk.svg"
   inkscape:version="1.3.2 (091e20e, 2023-11-25, custom)"
   xmlns:inkscape="http://www.inkscape.org/namespaces/inkscape"
   xmlns:sodipodi="http://sodipodi.sourceforge.net/DTD/sodipodi-0.dtd"
   xmlns="http://www.w3.org/2000/svg"
   xmlns:svg="http://www.w3.org/2000/svg">
  <defs
     id="defs6" />
  <sodipodi:namedview
     id="namedview4"
     pagecolor="#ffffff"
     bordercolor="#000000"
     borderopacity="0.25"
     inkscape:showpageshadow="2"
     inkscape:pageopacity="0.0"
     inkscape:pagecheckerboard="0"
     inkscape:deskcolor="#d1d1d1"
     inkscape:zoom="1.0928511"
     inkscape:cx="500.06815"
     inkscape:cy="62.680088"
     inkscape:window-width="1920"
     inkscape:window-height="1017"
     inkscape:window-x="1912"
     inkscape:window-y="-8"
     inkscape:window-maximized="1"
     inkscape:current-layer="g10" />
  <g
     id="g8"
     inkscape:groupmode="layer"
     inkscape:label="ink_ext_XXXXXX"
     transform="matrix(1.3333333,0,0,-1.3333333,0,300.34667)">
    <g
       id="g10"
       transform="scale(0.1)">
      <path
         d="m 1691.21,1285.4 c -15.4,-43.27 -5.54,-63.54 -11.71,-141.63 -6.17,-78.1 -12.74,-151.231 -0.75,-239.079 12.01,-87.871 -2.55,-251.992 -178.34,-339.839 -215.03,-25 -391.63,-118.973 -294.86,-221.493 89.47,-58.507 248.32,-19.507 302.83,0 54.54,19.532 242.46,117.153 291,185.493 48.55,68.339 97.28,258.687 91.43,410 -5.86,151.318 -12.79,171.798 -0.61,220.618 12.17,48.82 -5.77,205 -84.52,195.24 -78.77,-9.76 -102.3,-35.15 -114.47,-69.31"
         style="fill:#f89c0e;fill-opacity:1;fill-rule:nonzero;stroke:none"
         id="path12" />
      <path
         d="m 1679.65,1578.28 c -15.39,-43.28 -2.91,30.01 9.08,-57.84 12,-87.88 14.83,-66.29 76.3,-114.5 79.79,18.07 126.4,1.5 138.57,50.31 12.18,48.83 -5.76,205 -84.51,195.23 -78.77,-9.74 -127.25,-39.04 -139.44,-73.2"
         style="fill:#f89c0e;fill-opacity:1;fill-rule:nonzero;stroke:none"
         id="path14" />
      <path
         d="m 1083.34,1534.98 c 0,0 9.44,-173.71 -0.29,-221.39 -9.74,-47.69 -19.69,-235.02 -5.27,-320.192 2.3,-217.578 226.29,-253.16 274.69,-256.558 48.35,-3.418 150.03,47.672 72.71,108.98 -77.34,61.309 -169.79,155 -142.6,290.64 0,0 32.73,160.1 32.84,235.02 0.09,74.95 19.65,224.81 -33.54,245.24 -53.22,20.45 -140.24,68.12 -188.73,0 -48.5,-68.11 -9.81,-81.74 -9.81,-81.74"
         style="fill:#f89c0e;fill-opacity:1;fill-rule:nonzero;stroke:none"
         id="path16" />
      <path
         d="m 2957.36,2222.68 c -40.28,-0.97 -87.35,-2.77 -128.75,-6.19 4.51,0.12 8.96,0.24 13.3,0.34 44.49,1 81.19,3.83 115.45,5.85 z m 232.01,-11.4 c -75.55,9.27 -327.73,1.36 -427.99,-3.13 18.28,3.52 41.68,6.23 67.23,8.34 -36.39,-1.01 -77.89,-2.92 -127.13,-6.22 92.93,17.67 183.81,26.53 293.28,33.18 -76.41,2.2 -309.8,-15.48 -280.88,-8.87 1.02,0.24 2.01,0.46 2.99,0.67 103.93,5.24 215,9.96 296.46,14.7 -80.58,0.68 -185.6,-5.28 -292.42,-13.87 24.67,4.86 45.32,4.04 187.11,16.2 -105.82,-3.02 -252.11,-15.32 -361.19,-27.05 44.59,3.27 97.72,6.31 153.52,9.18 -234.24,-19.5 -470.15,-50.33 -470.15,-50.33 0,0 -1871.208,-300.69 -2175.6414,-1204.65 C -28.957,760.629 -54.9883,461.5 263.66,238.559 c -0.508,0.601 -0.957,1.222 -1.465,1.82 399.809,-297.9376 1219.655,-363.617 1947.985,61.672 611.22,356.937 78.43,138.597 -506.44,10.14 C 838.977,122.27 -114.504,525.84 683.762,1356.7 1482.02,2187.54 3189.37,2211.28 3189.37,2211.28 Z M 3034,2224.69 c -25.59,0.63 -50.43,-0.46 -76.64,-2.01 73.36,1.78 124.12,0.84 76.64,2.01 z m 102.46,22.03 -27.97,-0.35 c 11.17,-0.17 21.33,0.02 27.97,0.35 z m 0,0 113.61,1.43 c -55.5,5.63 -76.4,8.92 -428.94,-8.71 306.85,12.75 344.26,8.73 315.33,7.28 z m -5.51,-3.07 c -68.14,0 -268.38,-15.68 -268.38,-15.68 z m -584.12,-18.42 c -60.7,-4.46 -105.64,-9.38 -120.02,-14.96 26.84,4.21 69.44,9.52 120.02,14.96"
         style="fill:#1c63b7;fill-opacity:1;fill-rule:nonzero;stroke:none"
         id="path18" />
      <path
         d="m 2208.27,1669.05 h 53.71 v -213.07 h -53.71 v 213.07"
         style="fill:#231f20;fill-opacity:1;fill-rule:nonzero;stroke:none"
         id="path20" />
      <path
         d="m 2359.51,1514.48 v 19.39 h -0.6 c -2.99,-4.17 -10.45,-3.87 -18.2,-7.46 -8.36,-3.87 -11.05,-10.15 -11.05,-20.89 0,-10.74 5.08,-17.61 13.14,-17.61 11.93,0 16.71,8.96 16.71,26.57 z m 3.28,-58.5 c -1.79,5.67 -2.38,11.65 -3.28,18.21 h -0.6 c -5.97,-14.32 -20.29,-22.39 -36.41,-22.39 -32.23,0 -44.76,19.7 -44.76,47.46 0,29.83 10.44,43.87 44.76,51.92 l 21.19,5.07 c 11.64,2.69 15.82,7.76 15.82,17.61 0,9.85 -4.48,14.93 -13.73,14.93 -10.15,0 -14.93,-4.49 -15.22,-21.5 h -46.55 c 0,46.26 37.3,54.32 61.77,54.32 37.6,0 63.86,-9.85 63.86,-51.93 v -78.78 c 0,-14.92 0.6,-26.56 5.07,-34.92 h -51.92"
         style="fill:#231f20;fill-opacity:1;fill-rule:nonzero;stroke:none"
         id="path22" />
      <path
         d="m 2433.52,1617.43 h 51.92 v -19.7 h 0.6 c 6.87,15.82 20.59,23.88 39.09,23.88 23.58,0 42.08,-9.25 42.08,-43.87 v -121.76 h -53.72 v 106.54 c 0,13.43 -3.58,19.1 -13.12,19.1 -9.55,0 -13.14,-5.67 -13.14,-19.1 v -106.54 h -53.71 v 161.45"
         style="fill:#231f20;fill-opacity:1;fill-rule:nonzero;stroke:none"
         id="path24" />
      <path
         d="m 2652.79,1491.8 c 12.23,0 14.92,10.14 14.92,44.75 0,34.92 -2.69,45.07 -14.92,45.07 -12.53,0 -15.22,-10.15 -15.22,-45.07 0,-34.61 2.69,-44.75 15.22,-44.75 z m 14.92,177.25 h 53.71 v -213.07 h -51.92 v 22.09 h -0.6 c -6.56,-17.91 -17.61,-26.27 -36.71,-26.27 -36.1,0 -48.34,28.66 -48.34,88.34 0,60.88 19.7,81.47 49.54,81.47 15.22,0 28.35,-5.97 33.72,-22.38 h 0.6 v 69.82"
         style="fill:#231f20;fill-opacity:1;fill-rule:nonzero;stroke:none"
         id="path26" />
      <path
         d="m 2325.92,1316.84 h -118.18 v 82.96 h 118.18 z m -170.7,-349.149 h 19.7 c 23.87,0 32.82,8.348 32.82,38.189 v 277.54 h 118.18 V 994.539 c 0,-49.539 -2.99,-79.367 -27.46,-100.258 -22.08,-19.101 -59.68,-20.293 -87.73,-20.902 h -55.51 v 94.312"
         style="fill:#231f20;fill-opacity:1;fill-rule:nonzero;stroke:none"
         id="path28" />
      <path
         d="m 2715.65,973.66 h -113.99 v 39.39 h -1.2 c -22.09,-31.038 -53.72,-47.152 -100.87,-47.152 -55.5,0 -106.24,34.024 -106.24,105.042 v 212.48 h 118.18 v -162.35 c 0,-35.81 4.18,-60.87 38.8,-60.87 20.29,0 47.15,10.15 47.15,59.68 v 163.54 h 118.17 V 973.66"
         style="fill:#231f20;fill-opacity:1;fill-rule:nonzero;stroke:none"
         id="path30" />
      <path
         d="m 2932.3,1067.95 c 43.57,0 48.35,41.78 48.35,76.4 0,34.02 -16.72,60.88 -51.33,60.88 -33.43,0 -50.14,-28.65 -50.14,-61.48 0,-35.21 10.75,-75.8 53.12,-75.8 z m 163.53,-54.3 c 0,-61.478 -16.11,-148.021 -161.14,-148.021 -73.42,0 -151,19.703 -161.75,103.25 h 116.99 c 1.19,-2.981 4.18,-7.16 6.56,-10.738 7.17,-10.743 19.7,-22.68 34.62,-22.68 38.19,0 46.55,45.348 46.55,71.019 v 28.65 h -1.19 c -19.1,-27.45 -47.75,-42.97 -82.96,-42.97 -91.32,0 -132.5,68.04 -132.5,151 0,80.57 45.96,148.02 134.29,148.02 34.62,0 67.44,-13.73 81.17,-45.37 h 1.19 v 37.61 h 118.17 v -269.77"
         style="fill:#231f20;fill-opacity:1;fill-rule:nonzero;stroke:none"
         id="path32" />
      <path
         d="m 3369.18,1163.45 c 0,28.65 -21.48,51.92 -51.92,51.92 -35.21,0 -55.51,-18.5 -60.88,-51.92 z m -113.39,-61.47 c 2.97,-35.22 23.27,-60.29 60.27,-60.29 19.1,0 39.99,7.17 49.54,22.09 h 110.42 c -23.88,-66.839 -88.94,-97.882 -159.35,-97.882 -99.09,0 -173.69,58.492 -173.69,161.742 0,90.12 65.66,163.54 163.54,163.54 122.95,0 176.06,-68.64 176.06,-189.2 h -226.79"
         style="fill:#231f20;fill-opacity:1;fill-rule:nonzero;stroke:none"
         id="path34" />
      <path
         d="m 3532.11,1283.42 h 114 v -39.4 h 1.2 c 22.08,31.04 53.71,47.16 100.86,47.16 55.51,0 106.24,-34.03 106.24,-105.05 V 973.66 h -118.17 v 162.33 c 0,35.82 -4.18,60.88 -38.8,60.88 -20.3,0 -47.15,-10.14 -47.15,-59.68 V 973.66 h -118.18 v 309.76"
         style="fill:#231f20;fill-opacity:1;fill-rule:nonzero;stroke:none"
         id="path36" />
      <path
         d="m 4075.24,1205.23 c -42.37,0 -51.92,-39.99 -51.92,-76.4 0,-37 9.55,-76.99 51.92,-76.99 42.37,0 51.92,39.99 51.92,76.99 0,36.41 -9.55,76.4 -51.92,76.4 z m 165.92,-231.57 h -114 v 34.02 h -1.19 c -14.92,-19.7 -32.83,-41.782 -90.72,-41.782 -87.74,0 -130.11,86.532 -130.11,164.132 0,72.81 28.05,161.15 131.9,161.15 35.21,0 66.84,-15.52 84.75,-41.79 h 1.19 v 150.41 h 118.18 V 973.66"
         style="fill:#231f20;fill-opacity:1;fill-rule:nonzero;stroke:none"
         id="path38" />
      <text
         xml:space="preserve"
         style="font-style:normal;font-variant:normal;font-weight:normal;font-stretch:normal;font-size:240px;font-family:Helvetica-Narrow;-inkscape-font-specification:'Helvetica-Narrow, Normal';font-variant-ligatures:normal;font-variant-caps:normal;font-variant-numeric:normal;font-variant-east-asian:normal;fill:#231f20;fill-opacity:1;stroke:#231f20;stroke-width:5.66929;stroke-opacity:1"
         x="2894.8076"
         y="-593.01074"
         id="text1"
         transform="scale(1,-1)"><tspan
           sodipodi:role="line"
           id="tspan1"
           style="font-style:normal;font-variant:normal;font-weight:normal;font-stretch:normal;font-size:240px;font-family:Helvetica-Narrow;-inkscape-font-specification:'Helvetica-Narrow, Normal';font-variant-ligatures:normal;font-variant-caps:normal;font-variant-numeric:normal;font-variant-east-asian:normal;fill:#231f20;fill-opacity:1;stroke:#231f20;stroke-width:5.66929;stroke-opacity:1"
           x="2894.8076"
           y="-593.01074">bezirk rohrbach</tspan></text>
    </g>
  </g>
</svg>
