<?xml version="1.0" encoding="UTF-8" standalone="no"?>
<!-- Created with Inkscape (http://www.inkscape.org/) -->

<svg
   version="1.1"
   id="svg2"
   width="565.48804"
   height="300.35159"
   viewBox="0 0 565.48804 300.35159"
   sodipodi:docname="logo.svg"
   inkscape:version="1.3.2 (091e20e, 2023-11-25, custom)"
   inkscape:export-filename="logo.svg"
   inkscape:export-xdpi="96"
   inkscape:export-ydpi="96"
   xmlns:inkscape="http://www.inkscape.org/namespaces/inkscape"
   xmlns:sodipodi="http://sodipodi.sourceforge.net/DTD/sodipodi-0.dtd"
   xmlns="http://www.w3.org/2000/svg"
   xmlns:svg="http://www.w3.org/2000/svg">
  <defs
     id="defs6" />
  <sodipodi:namedview
     id="namedview4"
     pagecolor="#ffffff"
     bordercolor="#000000"
     borderopacity="0.25"
     inkscape:showpageshadow="2"
     inkscape:pageopacity="0.0"
     inkscape:pagecheckerboard="0"
     inkscape:deskcolor="#d1d1d1"
     inkscape:zoom="69.94247"
     inkscape:cx="563.04131"
     inkscape:cy="216.2849"
     inkscape:window-width="1920"
     inkscape:window-height="1017"
     inkscape:window-x="-8"
     inkscape:window-y="-8"
     inkscape:window-maximized="1"
     inkscape:current-layer="g10" />
  <g
     id="g8"
     inkscape:groupmode="layer"
     inkscape:label="ink_ext_XXXXXX"
     transform="matrix(1.3333333,0,0,-1.3333333,2.631799e-5,300.35197)">
    <g
       id="g10"
       transform="scale(0.1)">
      <path
         d="m 1691.21,1285.4 c -15.4,-43.27 -5.54,-63.54 -11.71,-141.63 -6.17,-78.1 -12.74,-151.231 -0.75,-239.079 12.01,-87.871 -2.55,-251.992 -178.34,-339.839 -215.03,-25 -391.63,-118.973 -294.86,-221.493 89.47,-58.507 248.32,-19.507 302.83,0 54.54,19.532 242.46,117.153 291,185.493 48.55,68.339 97.28,258.687 91.43,410 -5.86,151.318 -12.79,171.798 -0.61,220.618 12.17,48.82 -5.77,205 -84.52,195.24 -78.77,-9.76 -102.3,-35.15 -114.47,-69.31"
         style="fill:#f89c0e;fill-opacity:1;fill-rule:nonzero;stroke:none"
         id="path12" />
      <path
         d="m 1679.65,1578.28 c -15.39,-43.28 -2.91,30.01 9.08,-57.84 12,-87.88 14.83,-66.29 76.3,-114.5 79.79,18.07 126.4,1.5 138.57,50.31 12.18,48.83 -5.76,205 -84.51,195.23 -78.77,-9.74 -127.25,-39.04 -139.44,-73.2"
         style="fill:#f89c0e;fill-opacity:1;fill-rule:nonzero;stroke:none"
         id="path14" />
      <path
         d="m 1083.34,1534.98 c 0,0 9.44,-173.71 -0.29,-221.39 -9.74,-47.69 -19.69,-235.02 -5.27,-320.192 2.3,-217.578 226.29,-253.16 274.69,-256.558 48.35,-3.418 150.03,47.672 72.71,108.98 -77.34,61.309 -169.79,155 -142.6,290.64 0,0 32.73,160.1 32.84,235.02 0.09,74.95 19.65,224.81 -33.54,245.24 -53.22,20.45 -140.24,68.12 -188.73,0 -48.5,-68.11 -9.81,-81.74 -9.81,-81.74"
         style="fill:#f89c0e;fill-opacity:1;fill-rule:nonzero;stroke:none"
         id="path16" />
      <path
         d="m 2957.36,2222.68 c -40.28,-0.97 -87.35,-2.77 -128.75,-6.19 4.51,0.12 8.96,0.24 13.3,0.34 44.49,1 81.19,3.83 115.45,5.85 z m 232.01,-11.4 c -75.55,9.27 -327.73,1.36 -427.99,-3.13 18.28,3.52 41.68,6.23 67.23,8.34 -36.39,-1.01 -77.89,-2.92 -127.13,-6.22 92.93,17.67 183.81,26.53 293.28,33.18 -76.41,2.2 -309.8,-15.48 -280.88,-8.87 1.02,0.24 2.01,0.46 2.99,0.67 103.93,5.24 215,9.96 296.46,14.7 -80.58,0.68 -185.6,-5.28 -292.42,-13.87 24.67,4.86 45.32,4.04 187.11,16.2 -105.82,-3.02 -252.11,-15.32 -361.19,-27.05 44.59,3.27 97.72,6.31 153.52,9.18 -234.24,-19.5 -470.15,-50.33 -470.15,-50.33 0,0 -1871.208,-300.69 -2175.6414,-1204.65 C -28.957,760.629 -54.9883,461.5 263.66,238.559 c -0.508,0.601 -0.957,1.222 -1.465,1.82 399.809,-297.9376 1219.655,-363.617 1947.985,61.672 611.22,356.937 78.43,138.597 -506.44,10.14 C 838.977,122.27 -114.504,525.84 683.762,1356.7 1482.02,2187.54 3189.37,2211.28 3189.37,2211.28 Z M 3034,2224.69 c -25.59,0.63 -50.43,-0.46 -76.64,-2.01 73.36,1.78 124.12,0.84 76.64,2.01 z m 102.46,22.03 -27.97,-0.35 c 11.17,-0.17 21.33,0.02 27.97,0.35 z m 0,0 113.61,1.43 c -55.5,5.63 -76.4,8.92 -428.94,-8.71 306.85,12.75 344.26,8.73 315.33,7.28 z m -5.51,-3.07 c -68.14,0 -268.38,-15.68 -268.38,-15.68 z m -584.12,-18.42 c -60.7,-4.46 -105.64,-9.38 -120.02,-14.96 26.84,4.21 69.44,9.52 120.02,14.96"
         style="fill:#1c63b7;fill-opacity:1;fill-rule:nonzero;stroke:none"
         id="path18" />
      <path
         d="m 2208.27,1669.05 h 53.71 v -213.07 h -53.71 v 213.07"
         style="fill:#231f20;fill-opacity:1;fill-rule:nonzero;stroke:none"
         id="path20" />
      <path
         d="m 2359.51,1514.48 v 19.39 h -0.6 c -2.99,-4.17 -10.45,-3.87 -18.2,-7.46 -8.36,-3.87 -11.05,-10.15 -11.05,-20.89 0,-10.74 5.08,-17.61 13.14,-17.61 11.93,0 16.71,8.96 16.71,26.57 z m 3.28,-58.5 c -1.79,5.67 -2.38,11.65 -3.28,18.21 h -0.6 c -5.97,-14.32 -20.29,-22.39 -36.41,-22.39 -32.23,0 -44.76,19.7 -44.76,47.46 0,29.83 10.44,43.87 44.76,51.92 l 21.19,5.07 c 11.64,2.69 15.82,7.76 15.82,17.61 0,9.85 -4.48,14.93 -13.73,14.93 -10.15,0 -14.93,-4.49 -15.22,-21.5 h -46.55 c 0,46.26 37.3,54.32 61.77,54.32 37.6,0 63.86,-9.85 63.86,-51.93 v -78.78 c 0,-14.92 0.6,-26.56 5.07,-34.92 h -51.92"
         style="fill:#231f20;fill-opacity:1;fill-rule:nonzero;stroke:none"
         id="path22" />
      <path
         d="m 2433.52,1617.43 h 51.92 v -19.7 h 0.6 c 6.87,15.82 20.59,23.88 39.09,23.88 23.58,0 42.08,-9.25 42.08,-43.87 v -121.76 h -53.72 v 106.54 c 0,13.43 -3.58,19.1 -13.12,19.1 -9.55,0 -13.14,-5.67 -13.14,-19.1 v -106.54 h -53.71 v 161.45"
         style="fill:#231f20;fill-opacity:1;fill-rule:nonzero;stroke:none"
         id="path24" />
      <path
         d="m 2652.79,1491.8 c 12.23,0 14.92,10.14 14.92,44.75 0,34.92 -2.69,45.07 -14.92,45.07 -12.53,0 -15.22,-10.15 -15.22,-45.07 0,-34.61 2.69,-44.75 15.22,-44.75 z m 14.92,177.25 h 53.71 v -213.07 h -51.92 v 22.09 h -0.6 c -6.56,-17.91 -17.61,-26.27 -36.71,-26.27 -36.1,0 -48.34,28.66 -48.34,88.34 0,60.88 19.7,81.47 49.54,81.47 15.22,0 28.35,-5.97 33.72,-22.38 h 0.6 v 69.82"
         style="fill:#231f20;fill-opacity:1;fill-rule:nonzero;stroke:none"
         id="path26" />
      <path
         d="m 2325.92,1316.84 h -118.18 v 82.96 h 118.18 z m -170.7,-349.149 h 19.7 c 23.87,0 32.82,8.348 32.82,38.189 v 277.54 h 118.18 V 994.539 c 0,-49.539 -2.99,-79.367 -27.46,-100.258 -22.08,-19.101 -59.68,-20.293 -87.73,-20.902 h -55.51 v 94.312"
         style="fill:#231f20;fill-opacity:1;fill-rule:nonzero;stroke:none"
         id="path28" />
      <path
         d="m 2715.65,973.66 h -113.99 v 39.39 h -1.2 c -22.09,-31.038 -53.72,-47.152 -100.87,-47.152 -55.5,0 -106.24,34.024 -106.24,105.042 v 212.48 h 118.18 v -162.35 c 0,-35.81 4.18,-60.87 38.8,-60.87 20.29,0 47.15,10.15 47.15,59.68 v 163.54 h 118.17 V 973.66"
         style="fill:#231f20;fill-opacity:1;fill-rule:nonzero;stroke:none"
         id="path30" />
      <path
         d="m 2932.3,1067.95 c 43.57,0 48.35,41.78 48.35,76.4 0,34.02 -16.72,60.88 -51.33,60.88 -33.43,0 -50.14,-28.65 -50.14,-61.48 0,-35.21 10.75,-75.8 53.12,-75.8 z m 163.53,-54.3 c 0,-61.478 -16.11,-148.021 -161.14,-148.021 -73.42,0 -151,19.703 -161.75,103.25 h 116.99 c 1.19,-2.981 4.18,-7.16 6.56,-10.738 7.17,-10.743 19.7,-22.68 34.62,-22.68 38.19,0 46.55,45.348 46.55,71.019 v 28.65 h -1.19 c -19.1,-27.45 -47.75,-42.97 -82.96,-42.97 -91.32,0 -132.5,68.04 -132.5,151 0,80.57 45.96,148.02 134.29,148.02 34.62,0 67.44,-13.73 81.17,-45.37 h 1.19 v 37.61 h 118.17 v -269.77"
         style="fill:#231f20;fill-opacity:1;fill-rule:nonzero;stroke:none"
         id="path32" />
      <path
         d="m 3369.18,1163.45 c 0,28.65 -21.48,51.92 -51.92,51.92 -35.21,0 -55.51,-18.5 -60.88,-51.92 z m -113.39,-61.47 c 2.97,-35.22 23.27,-60.29 60.27,-60.29 19.1,0 39.99,7.17 49.54,22.09 h 110.42 c -23.88,-66.839 -88.94,-97.882 -159.35,-97.882 -99.09,0 -173.69,58.492 -173.69,161.742 0,90.12 65.66,163.54 163.54,163.54 122.95,0 176.06,-68.64 176.06,-189.2 h -226.79"
         style="fill:#231f20;fill-opacity:1;fill-rule:nonzero;stroke:none"
         id="path34" />
      <path
         d="m 3532.11,1283.42 h 114 v -39.4 h 1.2 c 22.08,31.04 53.71,47.16 100.86,47.16 55.51,0 106.24,-34.03 106.24,-105.05 V 973.66 h -118.17 v 162.33 c 0,35.82 -4.18,60.88 -38.8,60.88 -20.3,0 -47.15,-10.14 -47.15,-59.68 V 973.66 h -118.18 v 309.76"
         style="fill:#231f20;fill-opacity:1;fill-rule:nonzero;stroke:none"
         id="path36" />
      <path
         d="m 4075.24,1205.23 c -42.37,0 -51.92,-39.99 -51.92,-76.4 0,-37 9.55,-76.99 51.92,-76.99 42.37,0 51.92,39.99 51.92,76.99 0,36.41 -9.55,76.4 -51.92,76.4 z m 165.92,-231.57 h -114 v 34.02 h -1.19 c -14.92,-19.7 -32.83,-41.782 -90.72,-41.782 -87.74,0 -130.11,86.532 -130.11,164.132 0,72.81 28.05,161.15 131.9,161.15 35.21,0 66.84,-15.52 84.75,-41.79 h 1.19 v 150.41 h 118.18 V 973.66"
         style="fill:#231f20;fill-opacity:1;fill-rule:nonzero;stroke:none"
         id="path38" />
      <path
         id="text1"
         style="font-style:normal;font-variant:normal;font-weight:normal;font-stretch:normal;font-size:240px;font-family:Helvetica-Narrow;-inkscape-font-specification:'Helvetica-Narrow, Normal';font-variant-ligatures:normal;font-variant-caps:normal;font-variant-numeric:normal;font-variant-east-asian:normal;fill:#231f20;fill-opacity:1;stroke:#231f20;stroke-width:5.66929;stroke-opacity:1"
         d="M 2905.7889,770.04633 V 597.72211 h 16.3184 v 16.33301 c 3.84,-7.19999 7.9261,-12.32622 12.2461,-15.36621 4.48,-3.04 10.0818,-4.55567 16.8018,-4.55567 6.72,0 12.7973,1.59005 18.2373,4.79004 5.6,3.36 10.325,8.08505 14.165,14.16504 4,6.08 7.0313,13.36083 9.1113,21.84082 2.24,8.47999 3.3692,18.00447 3.3692,28.56446 0,9.43999 -1.0401,18.07309 -3.1201,25.91308 -2.08,7.84 -4.9626,14.48188 -8.6426,19.92188 -3.68,5.59999 -8.1673,9.92387 -13.4473,12.96387 -5.12,3.03999 -10.8705,4.55566 -17.2705,4.55566 -6.56,0 -12.1618,-1.51567 -16.8018,-4.55566 -4.64,-3.04 -9.2016,-8.16622 -13.6816,-15.36622 v 63.12012 z m 318.9551,0 v -23.99414 h 17.2852 v 23.99414 z m 109.2041,0 V 597.72211 h 16.8018 v 47.51953 l 14.3994,15.84961 31.919,-63.36914 h 22.3242 l -41.7627,78.72071 39.3603,46.80175 h -21.8408 l -44.3994,-53.04199 v 99.84375 z m 327.5977,0 V 597.72211 h 17.2852 v 68.40821 c 0,13.43998 2.4814,23.75215 7.4414,30.95214 5.12,7.36 12.4008,11.04493 21.8408,11.04493 7.2,0 12.3116,-2.24364 15.3515,-6.72364 3.2,-4.31999 4.8047,-11.5118 4.8047,-21.59179 v -82.08985 h 17.2852 v 85.44434 c 0,13.91998 -3.046,24.64798 -9.126,32.16797 -6.08,7.67999 -14.6387,11.51367 -25.6787,11.51367 -3.52,0 -6.7147,-0.40117 -9.5947,-1.20117 -2.72,-0.64 -5.3648,-1.7545 -7.9248,-3.35449 -2.4,-1.6 -4.7924,-3.76926 -7.1924,-6.48926 -2.24,-2.72 -4.647,-5.98911 -7.207,-9.8291 v 64.07226 z m 173.7598,0 V 597.72211 h 16.333 v 16.33301 c 3.84,-7.19999 7.9114,-12.32622 12.2314,-15.36621 4.48,-3.04 10.0818,-4.55567 16.8018,-4.55567 6.72,0 12.7973,1.59005 18.2373,4.79004 5.6,3.36 10.325,8.08505 14.165,14.16504 4,6.08 7.0314,13.36083 9.1114,21.84082 2.24,8.47999 3.3691,18.00447 3.3691,28.56446 0,9.43999 -1.0401,18.07309 -3.1201,25.91308 -2.08,7.84 -4.9626,14.48188 -8.6426,19.92188 -3.68,5.59999 -8.1673,9.92387 -13.4473,12.96387 -5.12,3.03999 -10.8705,4.55566 -17.2705,4.55566 -6.56,0 -12.1617,-1.51567 -16.8017,-4.55566 -4.64,-3.04 -9.2017,-8.16622 -13.6817,-15.36622 v 63.12012 z m 318.4863,0 V 597.72211 h 17.2852 v 68.40821 c 0,13.43998 2.4667,23.75215 7.4267,30.95214 5.12,7.36 12.4009,11.04493 21.8408,11.04493 7.2,0 12.3263,-2.24364 15.3663,-6.72364 3.2,-4.31999 4.8046,-11.5118 4.8046,-21.59179 v -82.08985 h 17.2706 v 85.44434 c 0,13.91998 -3.0314,24.64798 -9.1114,32.16797 -6.08,7.67999 -14.6387,11.51367 -25.6787,11.51367 -3.52,0 -6.7294,-0.40117 -9.6094,-1.20117 -2.72,-0.64 -5.3501,-1.7545 -7.9101,-3.35449 -2.4,-1.6 -4.8071,-3.76926 -7.2071,-6.48926 -2.2399,-2.72 -4.6323,-5.98911 -7.1923,-9.8291 v 64.07226 z M 3060.3446,726.84809 c -7.52,0 -14.3106,-1.60469 -20.3906,-4.80469 -5.92,-3.19999 -10.9572,-7.83602 -15.1172,-13.91601 -4.16,-5.92 -7.4438,-13.11181 -9.8437,-21.5918 -2.24,-8.31999 -3.3545,-17.77009 -3.3545,-28.33008 0,-19.99998 4.1458,-35.67615 12.4658,-47.03613 8.48,-11.35999 20.0847,-17.03614 34.8047,-17.03614 12,0 21.9256,3.75931 29.7656,11.2793 7.84,7.51999 12.8772,18.06994 15.1172,31.66992 h -17.2852 c -0.8,-7.19999 -3.7569,-13.11391 -8.8769,-17.7539 -5.12,-4.48 -11.1973,-6.72364 -18.2373,-6.72364 -10.24,0 -17.8477,4.16048 -22.8077,12.48047 -2.2399,3.52 -3.83,7.36833 -4.79,11.52832 -0.8,4.16 -1.3646,9.83614 -1.6846,17.03614 h 75.1172 c -0.16,5.91999 -0.4721,11.19496 -0.9521,15.83496 -0.32,4.63999 -0.8102,8.80047 -1.4502,12.48047 -0.64,3.67999 -1.4277,7.03812 -2.3877,10.07812 -0.96,3.2 -2.1635,6.32036 -3.6035,9.36035 -4,8.63999 -8.9628,15.04411 -14.8828,19.20411 -5.76,4.15999 -12.9665,6.24023 -21.6065,6.24023 z m 255.6006,0 c -6.08,0 -11.355,-1.91684 -15.835,-5.75684 -4.3199,-3.67999 -8.7926,-10.08411 -13.4326,-19.2041 v 21.35742 h -16.333 V 597.72211 h 17.2852 V 670.935 c 0,4.8 0.6389,9.27262 1.9189,13.43262 1.28,4.16 3.1225,7.68153 5.5225,10.56152 2.4,3.04 5.1935,5.35801 8.3935,6.95801 3.2,1.76 6.7216,2.63672 10.5616,2.63672 h 6.4892 v 21.60645 c -0.8,0.32 -1.5279,0.4834 -2.1679,0.4834 -0.64,0.15999 -1.4424,0.23437 -2.4024,0.23437 z m 218.6426,0 c -6.08,0 -11.355,-1.91684 -15.835,-5.75684 -4.32,-3.67999 -8.8072,-10.08411 -13.4472,-19.2041 v 21.35742 h -16.3184 V 597.72211 h 17.2852 V 670.935 c 0,4.8 0.6389,9.27262 1.9189,13.43262 1.28,4.16 3.1225,7.68153 5.5225,10.56152 2.4,3.04 5.1935,5.35801 8.3935,6.95801 3.2,1.76 6.7215,2.63672 10.5615,2.63672 h 6.4893 v 21.60645 c -0.8,0.32 -1.528,0.4834 -2.168,0.4834 -0.64,0.15999 -1.4423,0.23437 -2.4023,0.23437 z m 60.249,0 c -7.2,0 -13.8419,-1.60469 -19.9219,-4.80469 -5.92,-3.19999 -11.0462,-7.76164 -15.3662,-13.68164 -4.16,-5.75999 -7.4437,-12.71403 -9.8437,-20.87402 -2.24,-8.15999 -3.3545,-17.19427 -3.3545,-27.11426 0,-9.75999 1.1145,-18.71989 3.3545,-26.87988 2.4,-8 5.6837,-14.96868 9.8437,-20.88868 4.16,-5.75999 9.1972,-10.23262 15.1172,-13.43261 5.92,-3.2 12.3985,-4.80469 19.4385,-4.80469 7.04,0 13.4441,1.60469 19.2041,4.80469 5.92,3.19999 10.9572,7.67262 15.1172,13.43261 4.32,5.92 7.6037,12.96306 9.8437,21.12305 2.4,8.15999 3.6036,17.11989 3.6036,26.87988 0,9.75999 -1.2036,18.64552 -3.6036,26.64551 -2.24,8.15999 -5.4347,15.11403 -9.5947,20.87403 -4.16,5.91999 -9.1228,10.48164 -14.8828,13.68164 -5.76,3.35999 -12.0751,5.03906 -18.9551,5.03906 z m 224.1504,0 c -6.08,0 -11.355,-1.91684 -15.8349,-5.75684 -4.32,-3.67999 -8.8073,-10.08411 -13.4473,-19.2041 v 21.35742 h -16.3184 V 597.72211 h 17.2852 V 670.935 c 0,4.8 0.6389,9.27262 1.9189,13.43262 1.28,4.16 3.1225,7.68153 5.5225,10.56152 2.4,3.04 5.1935,5.35801 8.3935,6.95801 3.2,1.76 6.7216,2.63672 10.5616,2.63672 h 6.4892 v 21.60645 c -0.8,0.32 -1.5279,0.4834 -2.1679,0.4834 -0.64,0.15999 -1.4424,0.23437 -2.4024,0.23437 z m 167.7686,0 c -16.16,0 -27.6903,-5.27497 -34.5703,-15.83496 -2.24,-3.36 -3.8301,-6.97055 -4.7901,-10.81055 -0.96,-3.67999 -1.5989,-8.71719 -1.9189,-15.11719 h 15.8349 c 1.28,8.95999 3.6871,15.20071 7.2071,18.72071 3.68,3.67999 9.3561,5.52246 17.0361,5.52246 15.84,0 23.7598,-6.95404 23.7598,-20.87403 0,-4.63999 -0.728,-8.08715 -2.168,-10.32714 -1.44,-2.24 -3.758,-3.59227 -6.958,-4.07227 l -28.5645,-4.32129 c -10.08,-1.6 -17.8363,-5.76047 -23.2763,-12.48047 -5.28,-6.55999 -7.9102,-15.37114 -7.9102,-26.41113 0,-11.19999 2.957,-20.15989 8.877,-26.87989 5.92,-6.55999 13.9141,-9.8291 23.9941,-9.8291 7.36,0 13.8385,1.59005 19.4385,4.79004 5.76,3.2 11.4508,8.4006 17.0508,15.60059 0.64,-7.03999 2.23,-11.98817 4.79,-14.86817 2.72,-2.87999 7.0439,-4.32129 12.9639,-4.32129 2.4,0 5.0448,0.54993 7.9248,1.66993 0.64,0.32 1.0411,0.4834 1.2011,0.4834 0.32,0 0.6322,0.0744 0.9522,0.23437 v 15.36621 l -1.2012,-0.23437 -2.8711,-0.71778 h -1.9336 c -3.68,0 -5.5078,2.46677 -5.5078,7.42676 v 72.2461 c 0,11.03999 -3.5215,19.59871 -10.5615,25.67871 -6.88,6.23999 -16.4788,9.36035 -28.7988,9.36035 z m 110.6396,0 c -7.52,0 -14.3253,-1.60469 -20.4053,-4.80469 -5.9199,-3.19999 -10.9571,-7.83602 -15.1171,-13.91601 -4.16,-5.92 -7.4438,-13.11181 -9.8438,-21.5918 -2.24,-8.31999 -3.3545,-17.77009 -3.3545,-28.33008 0,-9.75999 1.0401,-18.63087 3.1201,-26.63086 2.24,-7.83999 5.3604,-14.5709 9.3604,-20.1709 4,-5.43999 8.7994,-9.67485 14.3994,-12.71484 5.76,-3.04 12.1495,-4.55567 19.1895,-4.55567 23.6799,0 37.6027,16.00297 41.7627,48.00293 h -16.8018 c -3.68,-19.67998 -12.0753,-29.53125 -25.1953,-29.53125 -8.8,0 -15.6053,3.99708 -20.4053,11.99707 -4.64,8.16 -6.958,19.92811 -6.958,35.28809 0,15.35999 2.4814,27.20247 7.4414,35.52246 4.96,8.47999 12.0031,12.71485 21.1231,12.71485 6.8799,0 12.2439,-2.15462 16.0839,-6.47461 3.84,-4.16 6.4702,-11.03966 7.9102,-20.63965 h 16.8018 c -3.04,30.55997 -16.0714,45.83496 -39.1114,45.83496 z m -973.4473,-3.60352 v -17.51953 h 57.3633 l -62.1533,-91.43555 v -16.56738 h 86.3965 v 17.51953 h -63.3692 l 61.6846,90.73243 v 17.2705 z m 100.7959,0 V 597.72211 h 17.2852 v 125.52246 z m 369.126,-14.88281 c 9.12,0 16.4008,-4.30923 21.8408,-12.94922 5.44,-8.47999 8.1592,-20.0847 8.1592,-34.80469 0,-14.55998 -2.7192,-26.16469 -8.1592,-34.80468 -5.28,-8.64 -12.4864,-12.94922 -21.6064,-12.94922 -9.12,0 -16.3862,4.30922 -21.8262,12.94922 -5.28,8.63999 -7.9248,20.2447 -7.9248,34.80468 0,7.2 0.639,13.67849 1.919,19.43848 1.44,5.92 3.4458,10.95719 6.0058,15.11719 2.56,4.31999 5.6804,7.60375 9.3604,9.84375 3.68,2.24 7.7514,3.35449 12.2314,3.35449 z m -643.916,-0.23437 c 18.72,0 28.081,-15.275 28.081,-45.83497 0,-15.83998 -2.407,-28.08364 -7.207,-36.72363 -4.8,-8.63999 -11.5162,-12.96387 -20.1562,-12.96387 -8.96,0 -15.9141,3.92271 -20.8741,11.7627 -4.96,7.83999 -7.4414,18.80576 -7.4414,32.88574 0,16.63999 2.318,29.27017 6.958,37.91016 4.8,8.63999 11.6797,12.96387 20.6397,12.96387 z m 109.6728,0 c 8.96,0 15.8397,-3.75931 20.6397,-11.2793 2.24,-3.2 3.8447,-6.72153 4.8047,-10.56152 0.96,-3.84 1.6733,-9.11497 2.1533,-15.83497 h -57.1143 c 0.48,11.35999 3.437,20.48329 8.877,27.36329 5.44,6.87999 12.3197,10.3125 20.6396,10.3125 z m 819.8438,0 c 18.72,0 28.0811,-15.275 28.0811,-45.83497 0,-15.83998 -2.4071,-28.08364 -7.2071,-36.72363 -4.8,-8.63999 -11.5162,-12.96387 -20.1562,-12.96387 -8.96,0 -15.914,3.92271 -20.874,11.7627 -4.96,7.83999 -7.4414,18.80576 -7.4414,32.88574 0,16.63999 2.318,29.27017 6.958,37.91016 4.8,8.63999 11.6796,12.96387 20.6396,12.96387 z m 129.3604,-46.31836 v -20.63965 c 0,-4 -0.8768,-7.83368 -2.6368,-11.51368 -1.5999,-3.51999 -3.918,-6.64035 -6.958,-9.36035 -2.88,-2.55999 -6.2381,-4.64023 -10.0781,-6.24023 -3.84,-1.6 -7.9261,-2.40235 -12.2461,-2.40235 -12.32,0 -18.4863,7.04307 -18.4863,21.12305 0,6.24 1.6791,10.9504 5.0391,14.15039 3.36,3.36 8.9617,5.67801 16.8017,6.95801 4.96,0.8 9.0461,1.52797 12.2461,2.16797 3.36,0.64 6.0792,1.18992 8.1592,1.66992 2.08,0.64 3.6847,1.2936 4.8047,1.9336 1.28,0.63999 2.3945,1.35332 3.3545,2.15332 z" />
    </g>
  </g>
</svg>
